Project "Django DBML" {
  database_type: 'PostgreSQL'
  Note: '''Generated from Django models.
  Last Updated At 09-14-2026 02:56AM UTC'''
}

enum core.char_attendancecorrection_status {
  "Pending" [note: '''Pending''']
  "Approved" [note: '''Approved''']
  "Rejected" [note: '''Rejected''']
}

enum core.char_expenseclaim_status {
  "Pending" [note: '''Pending''']
  "Approved" [note: '''Approved''']
  "Rejected" [note: '''Rejected''']
}

enum core.char_leaverequest_status {
  "Pending" [note: '''Pending''']
  "Approved" [note: '''Approved''']
  "Rejected" [note: '''Rejected''']
}

enum core.char_onboardingdocument_doc_type {
  "NBI" [note: '''NBI Clearance''']
  "BIR2316" [note: '''BIR Form 2316''']
  "PSA" [note: '''PSA Birth Certificate''']
  "contract" [note: '''Signed Employment Contract''']
}

enum core.char_overtimeslip_status {
  "Pending" [note: '''Pending''']
  "Approved" [note: '''Approved''']
  "Rejected" [note: '''Rejected''']
}

enum core.char_salaryadvance_status {
  "Pending" [note: '''Pending''']
  "Approved" [note: '''Approved''']
  "Rejected" [note: '''Rejected''']
}

enum core.char_shiftswap_status {
  "Pending" [note: '''Pending''']
  "Approved" [note: '''Approved''']
  "Rejected" [note: '''Rejected''']
}

Table auth.group_permissions {
  Note: '''
This is a Many-To-Many linking table autogenerated by Django.
'''

  id auto [pk, not null]
  permission_id auto [not null]
  group_id auto [not null]

  indexes {
    (group_id) [name: 'auth_group_permissions_group_id_b120cbf9', type: btree]
    (group_id,permission_id) [unique, name: 'auth_group_permissions_group_id_permission_id_0cd325b0_uniq', type: btree]
    (permission_id) [name: 'auth_group_permissions_permission_id_84c5c92e', type: btree]
    (id) [pk, unique, name: 'auth_group_permissions_pkey', type: btree]
  }
}
ref: auth_group.id > auth.group_permissions.group_id
ref: auth_permission.id > auth.group_permissions.permission_id


Table auth.user_groups {
  Note: '''
This is a Many-To-Many linking table autogenerated by Django.
'''

  id auto [pk, not null]
  group_id auto [not null]
  user_id auto [not null]

  indexes {
    (group_id) [name: 'auth_user_groups_group_id_97559544', type: btree]
    (id) [pk, unique, name: 'auth_user_groups_pkey', type: btree]
    (user_id) [name: 'auth_user_groups_user_id_6a12ed8b', type: btree]
    (user_id,group_id) [unique, name: 'auth_user_groups_user_id_group_id_94350c0c_uniq', type: btree]
  }
}
ref: auth_user.id > auth.user_groups.user_id
ref: auth_group.id > auth.user_groups.group_id


Table auth.user_user_permissions {
  Note: '''
This is a Many-To-Many linking table autogenerated by Django.
'''

  id auto [pk, not null]
  permission_id auto [not null]
  user_id auto [not null]

  indexes {
    (permission_id) [name: 'auth_user_user_permissions_permission_id_1fbb5f2c', type: btree]
    (id) [pk, unique, name: 'auth_user_user_permissions_pkey', type: btree]
    (user_id) [name: 'auth_user_user_permissions_user_id_a95ead1b', type: btree]
    (user_id,permission_id) [unique, name: 'auth_user_user_permissions_user_id_permission_id_14a6b632_uniq', type: btree]
  }
}
ref: auth_user.id > auth.user_user_permissions.user_id
ref: auth_permission.id > auth.user_user_permissions.permission_id


Table auth_group {
  Note: '''
Groups are a generic way of categorizing users to apply permissions, or
some other label, to those users. A user can belong to any number of
groups.

A user in a group automatically has all the permissions granted to that
group. For example, if the group 'Site editors' has the permission
can_edit_home_page, any user in that group will have that permission.

Beyond permissions, groups are a convenient way to categorize users to
apply some label, or extended functionality, to them. For example, you
could create a group 'Special users', and you could write code that would
do special things to those users -- such as giving them access to a
members-only portion of your site, or sending them members-only email
messages.
'''

  id auto [note: '''*ID*''', pk, unique, not null]
  name char [note: '''*name*''', unique, not null]

  indexes {
    (name) [unique, name: 'auth_group_name_key', type: btree]
    (id) [pk, unique, name: 'auth_group_pkey', type: btree]
  }
}


Table auth_permission {
  Note: '''
The permissions system provides a way to assign permissions to specific
users and groups of users.

The permission system is used by the Django admin site, but may also be
useful in your own code. The Django admin site uses permissions as follows:

- The "add" permission limits the user's ability to view the "add" form
and add an object.
- The "change" permission limits a user's ability to view the change
list, view the "change" form and change an object.
- The "delete" permission limits the ability to delete an object.
- The "view" permission limits the ability to view an object.

Permissions are set globally per type of object, not per specific object
instance. It is possible to say "Mary may change news stories," but it's
not currently possible to say "Mary may change news stories, but only the
ones she created herself" or "Mary may only change news stories that have a
certain status or publication date."

The permissions listed above are automatically created for each model.
'''

  id auto [note: '''*ID*''', pk, unique, not null]
  name char [note: '''*name*''', not null]
  content_type_id auto [note: '''*content type*''', not null]
  codename char [note: '''*codename*''', not null]

  indexes {
    (content_type_id) [name: 'auth_permission_content_type_id_2f476e4b', type: btree]
    (content_type_id,codename) [unique, name: 'auth_permission_content_type_id_codename_01ab375a_uniq', type: btree]
    (id) [pk, unique, name: 'auth_permission_pkey', type: btree]
  }
}
ref: auth_permission.content_type_id > django_content_type.id


Table auth_user {
  Note: '''
Users within the Django authentication system are represented by this
model.

Username and password are required. Other fields are optional.
'''

  id auto [note: '''*ID*''', pk, unique, not null]
  password char [note: '''*password*''', not null]
  last_login date_time [note: '''*last login*''', null]
  is_superuser boolean [note: '''
*superuser status*
Designates that this user has all permissions without explicitly assigning them.
''', default:`False`, not null]
  username char [note: '''
*username*
Required. 150 characters or fewer. Letters, digits and @/./+/-/_ only.
''', unique, not null]
  first_name char [note: '''*first name*''', not null]
  last_name char [note: '''*last name*''', not null]
  email email [note: '''*email address*''', not null]
  is_staff boolean [note: '''
*staff status*
Designates whether the user can log into this admin site.
''', default:`False`, not null]
  is_active boolean [note: '''
*active*
Designates whether this user should be treated as active. Unselect this instead of deleting accounts.
''', default:`True`, not null]
  date_joined date_time [note: '''*date joined*''', default:`django.utils.timezone.now()`, not null]

  indexes {
    (id) [pk, unique, name: 'auth_user_pkey', type: btree]
    (username) [unique, name: 'auth_user_username_key', type: btree]
  }
}


Table core_attendance {
  Note: '''
Attendance(id, employee, date, clock_in, clock_out)
'''

  id uuid [note: '''*id*''', pk, unique, default:`uuid.uuid4()`, not null]
  employee_id uuid [note: '''*employee*''', not null]
  date date [note: '''*date*''', not null]
  clock_in date_time [note: '''*clock in*''', null]
  clock_out date_time [note: '''*clock out*''', null]

  indexes {
    (employee_id) [name: 'core_attendance_employee_id_6327f987', type: btree]
    (employee_id,date) [unique, name: 'core_attendance_employee_id_date_905b5953_uniq', type: btree]
    (id) [pk, unique, name: 'core_attendance_pkey', type: btree]
  }
}
ref: core_attendance.employee_id > core_employee.id


Table core_attendancecorrection {
  Note: '''
AttendanceCorrection(id, attendance, proposed_clock_in, proposed_clock_out, reason, status, created_at)
'''

  id uuid [note: '''*id*''', pk, unique, default:`uuid.uuid4()`, not null]
  attendance_id uuid [note: '''*attendance*''', not null]
  proposed_clock_in date_time [note: '''*proposed clock in*''', null]
  proposed_clock_out date_time [note: '''*proposed clock out*''', null]
  reason text [note: '''*reason*''', not null]
  status core.char_attendancecorrection_status [note: '''*status*''', default:`"Pending"`, not null]
  created_at date_time [note: '''*created at*''', not null]

  indexes {
    (attendance_id) [name: 'core_attendancecorrection_attendance_id_f6849861', type: btree]
    (id) [pk, unique, name: 'core_attendancecorrection_pkey', type: btree]
  }
}
ref: core_attendancecorrection.attendance_id > core_attendance.id


Table core_claimstatus {
  Note: '''
ClaimStatus(id, claim_id, status, updated_at)
'''

  id big_auto [note: '''*ID*''', pk, unique, not null]
  claim_id char [note: '''*claim id*''', unique, not null]
  status char [note: '''*status*''', not null]
  updated_at date_time [note: '''*updated at*''', not null]

  indexes {
    (claim_id) [unique, name: 'core_claimstatus_claim_id_key', type: btree]
    (id) [pk, unique, name: 'core_claimstatus_pkey', type: btree]
  }
}


Table core_department {
  Note: '''
Department(id, name, code, manager, created_at, updated_at)
'''

  id uuid [note: '''*id*''', pk, unique, default:`uuid.uuid4()`, not null]
  name char [note: '''*name*''', unique, not null]
  code char [note: '''*code*''', unique, null]
  manager_id uuid [note: '''*manager*''', null]
  created_at date_time [note: '''*created at*''', not null]
  updated_at date_time [note: '''*updated at*''', not null]

  indexes {
    (code) [unique, name: 'core_department_code_key', type: btree]
    (manager_id) [name: 'core_department_manager_id_c93aa04b', type: btree]
    (name) [unique, name: 'core_department_name_key', type: btree]
    (id) [pk, unique, name: 'core_department_pkey', type: btree]
  }
}
ref: core_department.manager_id > core_employee.id


Table core_employee {
  Note: '''
Employee(id, first_name, last_name, email, role, department, date_hired, is_active, resigned_at, user)
'''

  id uuid [note: '''*id*''', pk, unique, default:`uuid.uuid4()`, not null]
  first_name char [note: '''*first name*''', not null]
  last_name char [note: '''*last name*''', not null]
  email email [note: '''*email*''', unique, not null]
  role char [note: '''*role*''', null]
  department_id uuid [note: '''*department*''', null]
  date_hired date [note: '''*date hired*''', not null]
  is_active boolean [note: '''*is active*''', default:`True`, not null]
  resigned_at date [note: '''*resigned at*''', null]
  user_id auto [note: '''*user*''', unique, null]

  indexes {
    (department_id) [name: 'core_employee_department_id_ada9945f', type: btree]
    (email) [unique, name: 'core_employee_email_key', type: btree]
    (id) [pk, unique, name: 'core_employee_pkey', type: btree]
    (user_id) [unique, name: 'core_employee_user_id_key', type: btree]
  }
}
ref: core_employee.department_id > core_department.id
ref: core_employee.user_id - auth_user.id


Table core_employeeauditlog {
  Note: '''
EmployeeAuditLog(id, employee, action, timestamp)
'''

  id uuid [note: '''*id*''', pk, unique, default:`uuid.uuid4()`, not null]
  employee_id uuid [note: '''*employee*''', null]
  action char [note: '''*action*''', not null]
  timestamp date_time [note: '''*timestamp*''', not null]

  indexes {
    (employee_id) [name: 'core_employeeauditlog_employee_id_644d8cf7', type: btree]
    (id) [pk, unique, name: 'core_employeeauditlog_pkey', type: btree]
  }
}
ref: core_employeeauditlog.employee_id > core_employee.id


Table core_expenseclaim {
  Note: '''
ExpenseClaim(id, employee, title, amount, category, status, created_at)
'''

  id uuid [note: '''*id*''', pk, unique, default:`uuid.uuid4()`, not null]
  employee_id uuid [note: '''*employee*''', not null]
  title char [note: '''*title*''', not null]
  amount decimal [note: '''*amount*''', not null]
  category char [note: '''*category*''', default:`"General Expense"`, not null]
  status core.char_expenseclaim_status [note: '''*status*''', default:`"Pending"`, not null]
  created_at date_time [note: '''*created at*''', not null]

  indexes {
    (employee_id) [name: 'core_expenseclaim_employee_id_51552599', type: btree]
    (id) [pk, unique, name: 'core_expenseclaim_pkey', type: btree]
  }
}
ref: core_expenseclaim.employee_id > core_employee.id


Table core_leaveallocation {
  Note: '''
LeaveAllocation(id, employee, leave_type, year, days_total)
'''

  id uuid [note: '''*id*''', pk, unique, default:`uuid.uuid4()`, not null]
  employee_id uuid [note: '''*employee*''', not null]
  leave_type char [note: '''*leave type*''', not null]
  year integer [note: '''*year*''', not null]
  days_total decimal [note: '''*days total*''', not null]

  indexes {
    (employee_id) [name: 'core_leaveallocation_employee_id_e18a9761', type: btree]
    (employee_id,leave_type,year) [unique, name: 'core_leaveallocation_employee_id_leave_type_year_c1869920_uniq', type: btree]
    (id) [pk, unique, name: 'core_leaveallocation_pkey', type: btree]
  }
}
ref: core_leaveallocation.employee_id > core_employee.id


Table core_leaverequest {
  Note: '''
LeaveRequest(id, employee, leave_type, start_date, end_date, reason, status, created_at)
'''

  id uuid [note: '''*id*''', pk, unique, default:`uuid.uuid4()`, not null]
  employee_id uuid [note: '''*employee*''', not null]
  leave_type char [note: '''*leave type*''', default:`"Personal"`, not null]
  start_date date [note: '''*start date*''', not null]
  end_date date [note: '''*end date*''', not null]
  reason text [note: '''*reason*''', not null]
  status core.char_leaverequest_status [note: '''*status*''', default:`"Pending"`, not null]
  created_at date_time [note: '''*created at*''', null]

  indexes {
    (employee_id) [name: 'core_leaverequest_employee_id_eae723bf', type: btree]
    (id) [pk, unique, name: 'core_leaverequest_pkey', type: btree]
  }
}
ref: core_leaverequest.employee_id > core_employee.id


Table core_message {
  Note: '''
Message(id, conversation_key, sender_name, text, attachment, created_at)
'''

  id uuid [note: '''*id*''', pk, unique, default:`uuid.uuid4()`, not null]
  conversation_key char [note: '''*conversation key*''', default:`"sarah"`, not null]
  sender_name char [note: '''*sender name*''', default:`"Marcus Williams"`, not null]
  text text [note: '''*text*''', not null]
  attachment file [note: '''*attachment*''', null]
  created_at date_time [note: '''*created at*''', not null]

  indexes {
    (conversation_key) [name: 'core_message_conversation_key_dee09d29', type: btree]
    (id) [pk, unique, name: 'core_message_pkey', type: btree]
  }
}


Table core_notification {
  Note: '''
Notification(id, employee, text, kind, is_read, created_at)
'''

  id uuid [note: '''*id*''', pk, unique, default:`uuid.uuid4()`, not null]
  employee_id uuid [note: '''*employee*''', not null]
  text char [note: '''*text*''', not null]
  kind char [note: '''*kind*''', default:`"info"`, not null]
  is_read boolean [note: '''*is read*''', default:`False`, not null]
  created_at date_time [note: '''*created at*''', not null]

  indexes {
    (employee_id) [name: 'core_notification_employee_id_2cc727f8', type: btree]
    (id) [pk, unique, name: 'core_notification_pkey', type: btree]
  }
}
ref: core_notification.employee_id > core_employee.id


Table core_onboardingdocument {
  Note: '''
OnboardingDocument(id, employee, doc_type, file, uploaded_at)
'''

  id uuid [note: '''*id*''', pk, unique, default:`uuid.uuid4()`, not null]
  employee_id uuid [note: '''*employee*''', not null]
  doc_type core.char_onboardingdocument_doc_type [note: '''*doc type*''', not null]
  file file [note: '''*file*''', not null]
  uploaded_at date_time [note: '''*uploaded at*''', not null]

  indexes {
    (employee_id) [name: 'core_onboardingdocument_employee_id_294ebd3b', type: btree]
    (id) [pk, unique, name: 'core_onboardingdocument_pkey', type: btree]
  }
}
ref: core_onboardingdocument.employee_id > core_employee.id


Table core_overtimeslip {
  Note: '''
OvertimeSlip(id, employee, attendance, date, hours, multiplier, status, created_at)
'''

  id uuid [note: '''*id*''', pk, unique, default:`uuid.uuid4()`, not null]
  employee_id uuid [note: '''*employee*''', not null]
  attendance_id uuid [note: '''*attendance*''', unique, not null]
  date date [note: '''*date*''', not null]
  hours decimal [note: '''*hours*''', not null]
  multiplier decimal [note: '''*multiplier*''', default:`1.25`, not null]
  status core.char_overtimeslip_status [note: '''*status*''', default:`"Pending"`, not null]
  created_at date_time [note: '''*created at*''', not null]

  indexes {
    (attendance_id) [unique, name: 'core_overtimeslip_attendance_id_key', type: btree]
    (employee_id) [name: 'core_overtimeslip_employee_id_17b75910', type: btree]
    (id) [pk, unique, name: 'core_overtimeslip_pkey', type: btree]
  }
}
ref: core_overtimeslip.employee_id > core_employee.id
ref: core_overtimeslip.attendance_id - core_attendance.id


Table core_payrollitem {
  Note: '''
PayrollItem(id, payroll_run, employee, base_pay, deductions, net_pay)
'''

  id uuid [note: '''*id*''', pk, unique, default:`uuid.uuid4()`, not null]
  payroll_run_id uuid [note: '''*payroll run*''', not null]
  employee_id uuid [note: '''*employee*''', not null]
  base_pay decimal [note: '''*base pay*''', not null]
  deductions decimal [note: '''*deductions*''', default:`0.0`, not null]
  net_pay decimal [note: '''*net pay*''', not null]

  indexes {
    (employee_id) [name: 'core_payrollitem_employee_id_79ccd81c', type: btree]
    (payroll_run_id) [name: 'core_payrollitem_payroll_run_id_094e6665', type: btree]
    (payroll_run_id,employee_id) [unique, name: 'core_payrollitem_payroll_run_id_employee_id_e420cb20_uniq', type: btree]
    (id) [pk, unique, name: 'core_payrollitem_pkey', type: btree]
  }
}
ref: core_payrollitem.payroll_run_id > core_payrollrun.id
ref: core_payrollitem.employee_id > core_employee.id


Table core_payrollrun {
  Note: '''
PayrollRun(id, pay_period_start, pay_period_end, is_processed)
'''

  id uuid [note: '''*id*''', pk, unique, default:`uuid.uuid4()`, not null]
  pay_period_start date [note: '''*pay period start*''', not null]
  pay_period_end date [note: '''*pay period end*''', not null]
  is_processed boolean [note: '''*is processed*''', default:`False`, not null]

  indexes {
    (id) [pk, unique, name: 'core_payrollrun_pkey', type: btree]
  }
}


Table core_performancereview {
  Note: '''
PerformanceReview(id, employee, review_date, score, comments)
'''

  id uuid [note: '''*id*''', pk, unique, default:`uuid.uuid4()`, not null]
  employee_id uuid [note: '''*employee*''', not null]
  review_date date [note: '''*review date*''', not null]
  score integer [note: '''*score*''', not null]
  comments text [note: '''*comments*''', not null]

  indexes {
    (employee_id) [name: 'core_performancereview_employee_id_e79904d7', type: btree]
    (id) [pk, unique, name: 'core_performancereview_pkey', type: btree]
  }
}
ref: core_performancereview.employee_id > core_employee.id


Table core_salaryadvance {
  Note: '''
SalaryAdvance(id, employee, amount, repayment_terms, purpose, status, created_at)
'''

  id uuid [note: '''*id*''', pk, unique, default:`uuid.uuid4()`, not null]
  employee_id uuid [note: '''*employee*''', not null]
  amount decimal [note: '''*amount*''', not null]
  repayment_terms char [note: '''*repayment terms*''', default:`"Next Payroll"`, not null]
  purpose text [note: '''*purpose*''', not null]
  status core.char_salaryadvance_status [note: '''*status*''', default:`"Pending"`, not null]
  created_at date_time [note: '''*created at*''', not null]

  indexes {
    (employee_id) [name: 'core_salaryadvance_employee_id_a0c39a76', type: btree]
    (id) [pk, unique, name: 'core_salaryadvance_pkey', type: btree]
  }
}
ref: core_salaryadvance.employee_id > core_employee.id


Table core_shiftroster {
  Note: '''
ShiftRoster(id, name, employee, work_date, shift_type, start_time, end_time, break_mins, created_at, updated_at)
'''

  id uuid [note: '''*id*''', pk, unique, default:`uuid.uuid4()`, not null]
  name char [note: '''*name*''', null]
  employee_id uuid [note: '''*employee*''', null]
  work_date date [note: '''*work date*''', null]
  shift_type char [note: '''*shift type*''', default:`"General"`, not null]
  start_time time [note: '''*start time*''', not null]
  end_time time [note: '''*end time*''', not null]
  break_mins integer [note: '''*break mins*''', default:`0`, not null]
  created_at date_time [note: '''*created at*''', not null]
  updated_at date_time [note: '''*updated at*''', not null]

  indexes {
    (employee_id) [name: 'core_shiftroster_employee_id_a1fb7bda', type: btree]
    (id) [pk, unique, name: 'core_shiftroster_pkey', type: btree]
  }
}
ref: core_shiftroster.employee_id > core_employee.id


Table core_shiftswap {
  Note: '''
ShiftSwap(id, requester_roster, target_roster, reason, status, created_at)
'''

  id uuid [note: '''*id*''', pk, unique, default:`uuid.uuid4()`, not null]
  requester_roster_id uuid [note: '''*requester roster*''', not null]
  target_roster_id uuid [note: '''*target roster*''', not null]
  reason text [note: '''*reason*''', not null]
  status core.char_shiftswap_status [note: '''*status*''', default:`"Pending"`, not null]
  created_at date_time [note: '''*created at*''', not null]

  indexes {
    (id) [pk, unique, name: 'core_shiftswap_pkey', type: btree]
    (requester_roster_id) [name: 'core_shiftswap_requester_roster_id_f4b52b77', type: btree]
    (target_roster_id) [name: 'core_shiftswap_target_roster_id_f080d020', type: btree]
  }
}
ref: core_shiftswap.requester_roster_id > core_shiftroster.id
ref: core_shiftswap.target_roster_id > core_shiftroster.id


Table django_content_type {
  Note: '''
ContentType(id, app_label, model)
'''

  id auto [note: '''*ID*''', pk, unique, not null]
  app_label char [note: '''*app label*''', not null]
  model char [note: '''*python model class name*''', not null]

  indexes {
    (app_label,model) [unique, name: 'django_content_type_app_label_model_76bd3d3b_uniq', type: btree]
    (id) [pk, unique, name: 'django_content_type_pkey', type: btree]
  }
}

